<svg class="iconLeft" viewBox="38.025 130.44 225 39.6" xmlns="http://www.w3.org/2000/svg" data-v-fde0c5aa="" style="max-height: 500px" width="225" height="39.6"><defs data-v-fde0c5aa=""/><rect class="logo-background-square" height="300px" width="300px" y="0" x="0" fill="#FFFFFF" data-v-fde0c5aa=""/><defs data-v-fde0c5aa=""/><g transform="matrix(2.2253330566549296,0,0,2.2253330566549296,78.92463623695896,132.38648788034448)" fill="#012169" id="2278a444-2ba1-4e03-9de3-3959cbf48d28" data-v-fde0c5aa=""><path d="M10.22 3.68L10.22 4.38L8.97 4.51L8.97 8.89Q8.97 10.05 8.69 10.85Q8.41 11.65 7.92 12.14Q7.43 12.63 6.75 12.85Q6.08 13.06 5.28 13.06L5.28 13.06Q4.47 13.06 3.79 12.85Q3.11 12.63 2.63 12.18Q2.14 11.73 1.88 11.03Q1.61 10.32 1.61 9.32L1.61 9.32L1.61 7.92Q1.61 7.07 1.61 6.22Q1.61 5.36 1.58 4.51L1.58 4.51L0.45 4.38L0.45 3.68L4.82 3.68L4.82 4.38L3.70 4.49Q3.67 5.35 3.67 6.20Q3.67 7.06 3.67 7.92L3.67 7.92L3.67 8.89Q3.67 9.72 3.81 10.29Q3.96 10.86 4.25 11.21Q4.54 11.56 4.95 11.72Q5.36 11.87 5.89 11.87L5.89 11.87Q6.43 11.87 6.85 11.72Q7.27 11.56 7.55 11.21Q7.84 10.86 7.99 10.29Q8.13 9.72 8.13 8.89L8.13 8.89L8.13 4.51L6.92 4.38L6.92 3.68L10.22 3.68ZM19.07 12.03L20.17 12.15L20.17 12.85L16.03 12.85L16.03 12.15L16.86 12.07L14.97 8.32L14.01 9.48Q14.01 10.12 14.01 10.76Q14.01 11.40 14.04 12.03L14.04 12.03L15.18 12.15L15.18 12.85L10.81 12.85L10.81 12.15L11.94 12.03Q11.97 11.16 11.97 10.28Q11.97 9.41 11.97 8.51L11.97 8.51L11.97 8.02Q11.97 7.14 11.97 6.27Q11.97 5.39 11.94 4.51L11.94 4.51L10.81 4.38L10.81 3.68L15.18 3.68L15.18 4.38L14.04 4.51Q14.01 5.38 14.01 6.25Q14.01 7.13 14.01 8.02L14.01 8.02L14.01 8.39L17.12 4.52L16.37 4.38L16.37 3.68L19.53 3.68L19.53 4.38L18.06 4.56L16.20 6.82L19.07 12.03ZM27.37 4.45L26.94 4.45Q26.91 5.33 26.91 6.22Q26.91 7.11 26.91 8.02L26.91 8.02L26.91 8.53L27.34 8.53Q28.46 8.53 28.98 7.95Q29.50 7.38 29.50 6.45L29.50 6.45Q29.50 5.49 28.98 4.97Q28.46 4.45 27.37 4.45L27.37 4.45ZM27.12 9.30L26.91 9.30Q26.91 9.95 26.91 10.64Q26.91 11.33 26.94 12.01L26.94 12.01L28.21 12.15L28.21 12.85L23.70 12.85L23.70 12.15L24.84 12.03Q24.86 11.16 24.86 10.28Q24.86 9.41 24.86 8.51L24.86 8.51L24.86 8.02Q24.86 7.14 24.86 6.27Q24.86 5.39 24.84 4.51L24.84 4.51L23.70 4.38L23.70 3.68L27.48 3.68Q28.53 3.68 29.27 3.88Q30.02 4.07 30.50 4.43Q30.98 4.79 31.21 5.29Q31.43 5.80 31.43 6.41L31.43 6.41Q31.43 6.96 31.24 7.48Q31.05 7.99 30.56 8.40Q30.07 8.81 29.24 9.05Q28.41 9.30 27.12 9.30L27.12 9.30ZM35.53 6.58L35.53 6.58Q34.06 6.58 34.06 9.48L34.06 9.48Q34.06 10.96 34.43 11.66Q34.80 12.36 35.53 12.36L35.53 12.36Q36.27 12.36 36.64 11.66Q37.00 10.96 37.00 9.48L37.00 9.48Q37.00 6.58 35.53 6.58ZM35.53 5.88L35.53 5.88Q36.23 5.88 36.87 6.13Q37.51 6.38 38.00 6.85Q38.49 7.32 38.78 7.99Q39.07 8.65 39.07 9.49L39.07 9.49Q39.07 10.33 38.81 10.99Q38.54 11.65 38.07 12.11Q37.59 12.57 36.94 12.82Q36.29 13.06 35.53 13.06L35.53 13.06Q34.78 13.06 34.13 12.82Q33.47 12.57 33.00 12.11Q32.54 11.65 32.26 10.99Q31.99 10.33 31.99 9.49L31.99 9.49Q31.99 8.65 32.28 7.99Q32.56 7.32 33.05 6.85Q33.54 6.38 34.19 6.13Q34.83 5.88 35.53 5.88ZM43.19 8.54L43.67 8.71Q44.21 8.90 44.58 9.13Q44.94 9.37 45.15 9.63Q45.36 9.90 45.44 10.20Q45.53 10.50 45.53 10.84L45.53 10.84Q45.53 11.34 45.32 11.75Q45.11 12.15 44.72 12.45Q44.32 12.74 43.78 12.90Q43.23 13.06 42.55 13.06L42.55 13.06Q41.82 13.06 41.27 12.89Q40.71 12.73 40.12 12.39L40.12 12.39L40.12 10.78L41.20 10.78L41.38 12.00Q41.71 12.18 41.98 12.26Q42.25 12.33 42.55 12.33L42.55 12.33Q43.22 12.33 43.53 12.11Q43.85 11.89 43.85 11.42L43.85 11.42Q43.85 11.23 43.78 11.08Q43.72 10.93 43.57 10.81Q43.41 10.68 43.16 10.56Q42.90 10.43 42.49 10.28L42.49 10.28L41.85 10.02Q41.01 9.70 40.58 9.19Q40.15 8.68 40.15 7.94L40.15 7.94Q40.15 7.01 40.86 6.45Q41.57 5.88 43.01 5.88L43.01 5.88Q43.64 5.88 44.13 6.02Q44.62 6.16 45.14 6.41L45.14 6.41L45.05 7.95L43.99 7.95L43.78 6.79Q43.60 6.72 43.40 6.66Q43.20 6.61 42.92 6.61L42.92 6.61Q42.42 6.61 42.11 6.84Q41.80 7.07 41.80 7.48L41.80 7.48Q41.80 7.63 41.86 7.76Q41.92 7.90 42.07 8.02Q42.22 8.15 42.50 8.27Q42.77 8.40 43.19 8.54L43.19 8.54ZM50.58 11.52L50.99 12.00Q50.72 12.40 50.22 12.70Q49.71 12.99 48.96 12.99L48.96 12.99Q48.10 12.99 47.61 12.57Q47.11 12.15 47.11 11.27L47.11 11.27Q47.11 10.84 47.12 10.52Q47.12 10.21 47.12 9.80L47.12 9.80L47.12 7.03L46.19 7.03L46.19 6.26L47.29 6.12L47.68 4.17L49.03 4.17L49.03 6.13L50.62 6.13L50.62 7.03L49.03 7.03L49.03 10.88Q49.03 11.40 49.23 11.63Q49.43 11.86 49.76 11.86L49.76 11.86Q49.90 11.86 50.11 11.79Q50.33 11.73 50.58 11.52L50.58 11.52ZM57.20 10.92L57.68 11.19Q57.43 12.10 56.66 12.58Q55.89 13.06 54.84 13.06L54.84 13.06Q54.07 13.06 53.45 12.82Q52.82 12.59 52.38 12.13Q51.94 11.68 51.70 11.01Q51.46 10.35 51.46 9.49L51.46 9.49Q51.46 8.65 51.75 7.98Q52.04 7.31 52.53 6.84Q53.02 6.37 53.67 6.13Q54.32 5.88 55.06 5.88L55.06 5.88Q55.62 5.88 56.11 6.03Q56.59 6.19 56.94 6.45Q57.29 6.71 57.49 7.07Q57.69 7.43 57.69 7.85L57.69 7.85Q57.54 8.53 56.87 8.53L56.87 8.53Q56.48 8.53 56.20 8.27Q55.92 8.01 55.89 7.38L55.89 7.38L55.85 6.64Q55.73 6.61 55.63 6.59Q55.52 6.58 55.41 6.58L55.41 6.58Q55.02 6.58 54.67 6.75Q54.32 6.93 54.06 7.27Q53.80 7.62 53.65 8.12Q53.49 8.62 53.49 9.28L53.49 9.28Q53.49 10.65 54.07 11.31Q54.64 11.97 55.52 11.97L55.52 11.97Q56.08 11.97 56.48 11.71Q56.88 11.45 57.20 10.92L57.20 10.92ZM62.08 6.58L62.08 6.58Q60.61 6.58 60.61 9.48L60.61 9.48Q60.61 10.96 60.98 11.66Q61.35 12.36 62.08 12.36L62.08 12.36Q62.82 12.36 63.18 11.66Q63.55 10.96 63.55 9.48L63.55 9.48Q63.55 6.58 62.08 6.58ZM62.08 5.88L62.08 5.88Q62.78 5.88 63.41 6.13Q64.05 6.38 64.54 6.85Q65.03 7.32 65.32 7.99Q65.62 8.65 65.62 9.49L65.62 9.49Q65.62 10.33 65.35 10.99Q65.09 11.65 64.61 12.11Q64.13 12.57 63.48 12.82Q62.83 13.06 62.08 13.06L62.08 13.06Q61.32 13.06 60.67 12.82Q60.02 12.57 59.55 12.11Q59.08 11.65 58.81 10.99Q58.53 10.33 58.53 9.49L58.53 9.49Q58.53 8.65 58.82 7.99Q59.11 7.32 59.60 6.85Q60.09 6.38 60.73 6.13Q61.38 5.88 62.08 5.88ZM71.43 11.49L71.43 7.42Q71.13 7.21 70.85 7.08Q70.56 6.96 70.27 6.96L70.27 6.96Q69.96 6.96 69.68 7.11Q69.40 7.27 69.18 7.57Q68.96 7.88 68.83 8.35Q68.70 8.82 68.70 9.46L68.70 9.46Q68.70 10.74 69.13 11.35Q69.55 11.97 70.18 11.97L70.18 11.97Q70.49 11.97 70.81 11.84Q71.12 11.70 71.43 11.49L71.43 11.49ZM73.33 12.07L74.14 12.24L74.14 12.85L71.60 12.99L71.48 12.17Q71.06 12.60 70.57 12.83Q70.08 13.06 69.44 13.06L69.44 13.06Q68.85 13.06 68.34 12.84Q67.83 12.61 67.46 12.17Q67.09 11.72 66.88 11.05Q66.67 10.39 66.67 9.51L66.67 9.51Q66.67 8.67 66.90 7.99Q67.13 7.32 67.54 6.85Q67.94 6.38 68.48 6.13Q69.02 5.88 69.65 5.88L69.65 5.88Q70.24 5.88 70.69 6.08Q71.13 6.27 71.50 6.64L71.50 6.64L71.50 4.10L70.38 3.96L70.38 3.40L73.19 2.77L73.39 2.88L73.33 4.87L73.33 12.07ZM77.00 8.86L78.68 8.86Q79.18 8.86 79.37 8.65Q79.56 8.44 79.56 7.99L79.56 7.99Q79.56 7.32 79.28 6.95Q79.00 6.58 78.55 6.58L78.55 6.58Q78.32 6.58 78.06 6.69Q77.81 6.80 77.60 7.07Q77.38 7.34 77.22 7.78Q77.06 8.22 77.00 8.86L77.00 8.86ZM81.28 9.56L76.99 9.56Q77.03 10.81 77.60 11.39Q78.16 11.97 79.02 11.97L79.02 11.97Q79.63 11.97 80.03 11.70Q80.43 11.42 80.75 10.92L80.75 10.92L81.23 11.19Q80.95 12.11 80.18 12.59Q79.41 13.06 78.34 13.06L78.34 13.06Q77.59 13.06 76.96 12.82Q76.33 12.59 75.89 12.13Q75.45 11.68 75.20 11.01Q74.96 10.35 74.96 9.49L74.96 9.49Q74.96 8.69 75.22 8.04Q75.49 7.38 75.96 6.90Q76.43 6.41 77.07 6.15Q77.71 5.88 78.46 5.88L78.46 5.88Q79.13 5.88 79.67 6.10Q80.21 6.31 80.58 6.71Q80.96 7.10 81.17 7.64Q81.37 8.19 81.37 8.83L81.37 8.83Q81.37 9.23 81.28 9.56L81.28 9.56Z"/></g><defs data-v-fde0c5aa=""/><g transform="matrix(0.07277307068174522,0,0,0.07277307068174522,34.83311198159609,131.37052919361574)" fill="#C8102E" stroke="none" id="b3aa4828-1f78-45d5-8cae-6b8bd9e6a968" data-v-fde0c5aa=""><path d="M335.45 248.31v-89.03l-52.32 33.73 52.32 55.3zM176.55 159.28v90.05l58.08-52.61-58.08-37.44zM176.55 149.76L256 200.98l79.45-51.22v-4.32h-158.9v4.32z"/><path d="M258.17 209.1a4 4 0 01-4.34 0l-12.24-7.89-58.67 53.14h147.24l-53.87-56.93z"/><path d="M256 67.26c-73.39 0-133.09 59.77-133.09 133.24S182.61 333.75 256 333.75 389.09 274 389.09 200.5 329.39 67.26 256 67.26zm87.45 191.09a4 4 0 01-4 4h-166.9a4 4 0 01-4-4V141.44a4 4 0 014-4h166.9a4 4 0 014 4z"/><path d="M256 20C154 20 71 103.1 71 205.25c0 118.34 133.31 246.24 174.17 282.62a16.3 16.3 0 0021.66 0C307.69 451.49 441 323.59 441 205.25 441 103.1 358 20 256 20zm0 321.75c-77.8 0-141.09-63.36-141.09-141.25S178.2 59.26 256 59.26s141.09 63.36 141.09 141.24S333.8 341.75 256 341.75z"/></g></svg>