<?xml version="1.0" standalone="no"?>
<!DOCTYPE svg PUBLIC "-//W3C//DTD SVG 20010904//EN"
 "http://www.w3.org/TR/2001/REC-SVG-20010904/DTD/svg10.dtd">
<svg version="1.0" xmlns="http://www.w3.org/2000/svg"
 width="150.000000pt" height="150.000000pt" viewBox="0 0 150.000000 150.000000"
 preserveAspectRatio="xMidYMid meet">
<metadata>
Created by potrace 1.14, written by Peter Selinger 2001-2017
</metadata>
<g transform="translate(0.000000,150.000000) scale(0.100000,-0.100000)"
fill="#000000" stroke="none">
<path d="M700 1259 c-68 -13 -150 -58 -203 -111 -109 -109 -144 -268 -93 -421
44 -130 130 -258 273 -404 51 -53 89 -83 102 -83 28 0 103 70 200 186 160 193
221 343 200 492 -25 173 -156 310 -328 342 -62 11 -88 11 -151 -1z m212 -108
c133 -64 205 -222 164 -362 -31 -108 -113 -186 -226 -215 -71 -18 -121 -13
-195 20 -74 33 -110 69 -147 143 -27 56 -32 77 -32 137 0 139 86 252 224 297
45 15 164 4 212 -20z"/>
<path d="M651 1129 c-215 -108 -211 -408 9 -520 64 -32 176 -33 241 -1 56 27
113 83 142 137 17 32 22 57 22 125 0 76 -3 91 -30 139 -78 141 -240 192 -384
120z m319 -254 l0 -135 -190 0 -190 0 0 135 0 135 190 0 190 0 0 -135z"/>
<path d="M616 981 c5 -5 45 -31 88 -59 l79 -50 76 50 c42 27 80 54 86 59 5 5
-57 9 -165 9 -103 0 -170 -4 -164 -9z"/>
<path d="M610 865 l0 -97 58 52 c31 29 58 55 59 59 2 3 -12 15 -30 27 -17 11
-44 29 -59 38 l-28 18 0 -97z"/>
<path d="M900 929 c-25 -16 -46 -34 -48 -39 -4 -11 86 -110 99 -110 5 0 9 41
9 90 0 50 -3 90 -7 89 -5 0 -28 -14 -53 -30z"/>
<path d="M805 866 c-14 -10 -25 -11 -38 -4 -15 7 -29 -1 -75 -44 l-58 -53 73
-3 c40 -2 108 -2 151 0 l77 3 -55 58 c-51 54 -56 57 -75 43z"/>
</g>
</svg>
